<svg xmlns="http://www.w3.org/2000/svg" viewBox="0 0 96 96" xmlns:xlink="http://www.w3.org/1999/xlink">
<path d="m92.163,20.322l-27.591,27.759 27.591,27.594c1.155,1.152 1.155,3.021 0,4.176l-12.528,12.525c-1.149,1.155-3.018,1.155-4.173,0l-27.546-27.546-27.381,27.546c-1.152,1.155-3.021,1.155-4.176,0l-12.525-12.525c-1.152-1.155-1.152-3.024 0-4.176l27.381-27.546-27.378-27.378c-1.152-1.152-1.152-3.021 0-4.176l12.525-12.525c1.152-1.155 3.021-1.155 4.176,0l27.33,27.33 27.597-27.759c1.155-1.155 3.024-1.155 4.173,0l12.528,12.525c1.149,1.155 1.149,3.024-.003,4.176z" fill="currentColor"/>
</svg>
